solid ascii
  facet normal 0.000000e+000 -1.000000e+000 0.000000e+000
    outer loop
      vertex   -3.000000e+001 5.000000e+000 1.500000e+001
      vertex   -3.000000e+001 5.000000e+000 0.000000e+000
      vertex   -1.000000e+001 5.000000e+000 1.500000e+001
    endloop
  endfacet
  facet normal 0.000000e+000 -8.000000e-001 -0.000000e+000
    outer loop
      vertex   -1.000000e+001 5.000000e+000 1.500000e+001
      vertex   -3.000000e+001 5.000000e+000 0.000000e+000
      vertex   -1.000000e+001 5.000000e+000 0.000000e+000
    endloop
  endfacet
  facet normal 0.000000e+000 0.000000e+000 -1.000000e+000
    outer loop
      vertex   -1.000000e+001 5.000000e+000 0.000000e+000
      vertex   -3.000000e+001 5.000000e+000 0.000000e+000
      vertex   -1.000000e+001 2.500000e+001 0.000000e+000
    endloop
  endfacet
  facet normal -0.000000e+000 0.000000e+000 -7.071068e-001
    outer loop
      vertex   -1.000000e+001 2.500000e+001 0.000000e+000
      vertex   -3.000000e+001 5.000000e+000 0.000000e+000
      vertex   -3.000000e+001 2.500000e+001 0.000000e+000
    endloop
  endfacet
  facet normal 0.000000e+000 1.000000e+000 0.000000e+000
    outer loop
      vertex   -1.000000e+001 2.500000e+001 1.500000e+001
      vertex   -1.000000e+001 2.500000e+001 0.000000e+000
      vertex   -3.000000e+001 2.500000e+001 1.500000e+001
    endloop
  endfacet
  facet normal 0.000000e+000 8.000000e-001 0.000000e+000
    outer loop
      vertex   -3.000000e+001 2.500000e+001 1.500000e+001
      vertex   -1.000000e+001 2.500000e+001 0.000000e+000
      vertex   -3.000000e+001 2.500000e+001 0.000000e+000
    endloop
  endfacet
  facet normal 8.660254e-001 0.000000e+000 0.000000e+000
    outer loop
      vertex   -1.000000e+001 3.232051e+001 1.500000e+001
      vertex   -1.000000e+001 1.500000e+001 4.500000e+001
      vertex   -1.000000e+001 2.500000e+001 1.500000e+001
    endloop
  endfacet
  facet normal 9.486833e-001 0.000000e+000 0.000000e+000
    outer loop
      vertex   -1.000000e+001 2.500000e+001 1.500000e+001
      vertex   -1.000000e+001 1.500000e+001 4.500000e+001
      vertex   -1.000000e+001 5.000000e+000 1.500000e+001
    endloop
  endfacet
  facet normal 6.000000e-001 0.000000e+000 0.000000e+000
    outer loop
      vertex   -1.000000e+001 2.500000e+001 1.500000e+001
      vertex   -1.000000e+001 5.000000e+000 1.500000e+001
      vertex   -1.000000e+001 5.000000e+000 0.000000e+000
    endloop
  endfacet
  facet normal 2.004803e-001 0.000000e+000 0.000000e+000
    outer loop
      vertex   -1.000000e+001 1.500000e+001 4.500000e+001
      vertex   -1.000000e+001 -2.320508e+000 1.500000e+001
      vertex   -1.000000e+001 5.000000e+000 1.500000e+001
    endloop
  endfacet
  facet normal 6.000000e-001 0.000000e+000 0.000000e+000
    outer loop
      vertex   -1.000000e+001 5.000000e+000 0.000000e+000
      vertex   -1.000000e+001 2.500000e+001 0.000000e+000
      vertex   -1.000000e+001 2.500000e+001 1.500000e+001
    endloop
  endfacet
  facet normal 0.000000e+000 0.000000e+000 -1.000000e+000
    outer loop
      vertex   -1.000000e+001 2.500000e+001 1.500000e+001
      vertex   -3.000000e+001 2.500000e+001 1.500000e+001
      vertex   -1.000000e+001 3.232051e+001 1.500000e+001
    endloop
  endfacet
  facet normal -0.000000e+000 0.000000e+000 -3.437237e-001
    outer loop
      vertex   -1.000000e+001 3.232051e+001 1.500000e+001
      vertex   -3.000000e+001 2.500000e+001 1.500000e+001
      vertex   -3.000000e+001 3.232051e+001 1.500000e+001
    endloop
  endfacet
  facet normal -8.660254e-001 0.000000e+000 0.000000e+000
    outer loop
      vertex   -3.000000e+001 -2.320508e+000 1.500000e+001
      vertex   -3.000000e+001 1.500000e+001 4.500000e+001
      vertex   -3.000000e+001 5.000000e+000 1.500000e+001
    endloop
  endfacet
  facet normal -9.486833e-001 0.000000e+000 0.000000e+000
    outer loop
      vertex   -3.000000e+001 5.000000e+000 1.500000e+001
      vertex   -3.000000e+001 1.500000e+001 4.500000e+001
      vertex   -3.000000e+001 2.500000e+001 1.500000e+001
    endloop
  endfacet
  facet normal -1.000000e+000 0.000000e+000 0.000000e+000
    outer loop
      vertex   -3.000000e+001 5.000000e+000 1.500000e+001
      vertex   -3.000000e+001 2.500000e+001 1.500000e+001
      vertex   -3.000000e+001 5.000000e+000 0.000000e+000
    endloop
  endfacet
  facet normal -6.000000e-001 0.000000e+000 0.000000e+000
    outer loop
      vertex   -3.000000e+001 5.000000e+000 0.000000e+000
      vertex   -3.000000e+001 2.500000e+001 1.500000e+001
      vertex   -3.000000e+001 2.500000e+001 0.000000e+000
    endloop
  endfacet
  facet normal -2.004803e-001 0.000000e+000 0.000000e+000
    outer loop
      vertex   -3.000000e+001 1.500000e+001 4.500000e+001
      vertex   -3.000000e+001 3.232051e+001 1.500000e+001
      vertex   -3.000000e+001 2.500000e+001 1.500000e+001
    endloop
  endfacet
  facet normal 0.000000e+000 -8.660254e-001 5.000000e-001
    outer loop
      vertex   -1.000000e+001 1.500000e+001 4.500000e+001
      vertex   -3.000000e+001 1.500000e+001 4.500000e+001
      vertex   -1.000000e+001 -2.320508e+000 1.500000e+001
    endloop
  endfacet
  facet normal 0.000000e+000 -7.500000e-001 4.330127e-001
    outer loop
      vertex   -1.000000e+001 -2.320508e+000 1.500000e+001
      vertex   -3.000000e+001 1.500000e+001 4.500000e+001
      vertex   -3.000000e+001 -2.320508e+000 1.500000e+001
    endloop
  endfacet
  facet normal 0.000000e+000 8.660254e-001 5.000000e-001
    outer loop
      vertex   -1.000000e+001 3.232051e+001 1.500000e+001
      vertex   -3.000000e+001 3.232051e+001 1.500000e+001
      vertex   -1.000000e+001 1.500000e+001 4.500000e+001
    endloop
  endfacet
  facet normal 0.000000e+000 7.500000e-001 4.330127e-001
    outer loop
      vertex   -1.000000e+001 1.500000e+001 4.500000e+001
      vertex   -3.000000e+001 3.232051e+001 1.500000e+001
      vertex   -3.000000e+001 1.500000e+001 4.500000e+001
    endloop
  endfacet
  facet normal 0.000000e+000 0.000000e+000 -1.000000e+000
    outer loop
      vertex   -3.000000e+001 5.000000e+000 1.500000e+001
      vertex   -1.000000e+001 5.000000e+000 1.500000e+001
      vertex   -3.000000e+001 -2.320508e+000 1.500000e+001
    endloop
  endfacet
  facet normal 0.000000e+000 0.000000e+000 -3.437238e-001
    outer loop
      vertex   -3.000000e+001 -2.320508e+000 1.500000e+001
      vertex   -1.000000e+001 5.000000e+000 1.500000e+001
      vertex   -1.000000e+001 -2.320508e+000 1.500000e+001
    endloop
  endfacet
endsolid
